<svg width="58" height="10" viewBox="0 0 58 10" fill="none" xmlns="http://www.w3.org/2000/svg">
<path d="M1.96283 9.75L2.79671 6.14507L0 3.72039L3.69474 3.39967L5.13158 0L6.56842 3.39967L10.2632 3.72039L7.46645 6.14507L8.30033 9.75L5.13158 7.83849L1.96283 9.75Z" fill="black"/>
<path d="M13.9628 9.75L14.7967 6.14507L12 3.72039L15.6947 3.39967L17.1316 0L18.5684 3.39967L22.2632 3.72039L19.4664 6.14507L20.3003 9.75L17.1316 7.83849L13.9628 9.75Z" fill="black"/>
<path d="M25.9628 9.75L26.7967 6.14507L24 3.72039L27.6947 3.39967L29.1316 0L30.5684 3.39967L34.2632 3.72039L31.4664 6.14507L32.3003 9.75L29.1316 7.83849L25.9628 9.75Z" fill="black"/>
<path d="M37.9628 9.75L38.7967 6.14507L36 3.72039L39.6947 3.39967L41.1316 0L42.5684 3.39967L46.2632 3.72039L43.4664 6.14507L44.3003 9.75L41.1316 7.83849L37.9628 9.75Z" fill="black"/>
<path d="M49.6996 10L50.5335 6.39507L47.7368 3.97039L51.4316 3.64967L52.8684 0.25L54.3052 3.64967L58 3.97039L55.2033 6.39507L56.0371 10L52.8684 8.08849L49.6996 10Z" fill="black"/>
</svg>
