<svg width="65" height="63" viewBox="0 0 65 63" fill="none" xmlns="http://www.w3.org/2000/svg">
<rect width="65" height="63" fill="#4FAFCB"/>
<path d="M14.7756 31.2472C14.679 30.8892 14.5369 30.5739 14.3494 30.3011C14.1619 30.0227 13.9318 29.7869 13.6591 29.5938C13.3864 29.4006 13.0739 29.2557 12.7216 29.1591C12.3693 29.0568 11.983 29.0057 11.5625 29.0057C10.7159 29.0057 9.98295 29.2102 9.36364 29.6193C8.75 30.0284 8.27557 30.625 7.94034 31.4091C7.60511 32.1875 7.4375 33.1335 7.4375 34.2472C7.4375 35.3665 7.59943 36.321 7.9233 37.1108C8.24716 37.9006 8.71591 38.5028 9.32955 38.9176C9.94318 39.3324 10.6875 39.5398 11.5625 39.5398C12.3352 39.5398 12.9886 39.4148 13.5227 39.1648C14.0625 38.9091 14.4716 38.5483 14.75 38.0824C15.0284 37.6165 15.1676 37.0682 15.1676 36.4375L15.9517 36.5312H11.7074V33.4545H19.233V35.7642C19.233 37.3267 18.9006 38.6648 18.2358 39.7784C17.5767 40.892 16.6676 41.7472 15.5085 42.3438C14.3551 42.9403 13.0284 43.2386 11.5284 43.2386C9.86364 43.2386 8.40057 42.8778 7.1392 42.1562C5.87784 41.4347 4.89489 40.4062 4.19034 39.071C3.4858 37.7301 3.13352 36.1392 3.13352 34.2983C3.13352 32.8665 3.34659 31.5966 3.77273 30.4886C4.19886 29.375 4.79261 28.4318 5.55398 27.6591C6.32102 26.8864 7.20739 26.3011 8.21307 25.9034C9.22443 25.5057 10.3125 25.3068 11.4773 25.3068C12.4886 25.3068 13.429 25.4517 14.2983 25.7415C15.1733 26.0312 15.946 26.4403 16.6165 26.9688C17.2926 27.4972 17.8409 28.125 18.2614 28.8523C18.6818 29.5795 18.9432 30.3778 19.0455 31.2472H14.7756ZM21.7195 25.5455H26.9439L31.3757 36.3523H31.5803L36.0121 25.5455H41.2365V43H37.1286V32.2784H36.9837L32.7905 42.8892H30.1655L25.9723 32.2188H25.8274V43H21.7195V25.5455ZM43.8679 43V25.5455H48.0866V32.5511H54.9645V25.5455H59.1747V43H54.9645V35.9858H48.0866V43H43.8679Z" fill="white"/>
</svg>
