<svg width="34" height="34" viewBox="0 0 34 34" fill="none" xmlns="http://www.w3.org/2000/svg">
<rect width="34" height="34" rx="2" fill="#031849"/>
<path d="M17.3161 11.0909H19.5959V18.6974C19.5959 19.4006 19.4379 20.0114 19.1218 20.5298C18.8093 21.0483 18.3743 21.4478 17.8168 21.7283C17.2592 22.0089 16.6112 22.1491 15.8725 22.1491C15.2156 22.1491 14.619 22.0337 14.0827 21.8029C13.5501 21.5685 13.1275 21.2134 12.815 20.7376C12.5025 20.2582 12.348 19.6562 12.3516 18.9318H14.6474C14.6545 19.2195 14.7131 19.4663 14.8232 19.6722C14.9368 19.8746 15.0913 20.0309 15.2866 20.141C15.4854 20.2475 15.7198 20.3008 15.9897 20.3008C16.2738 20.3008 16.5135 20.2404 16.7088 20.1197C16.9077 19.9954 17.0586 19.8143 17.1616 19.5763C17.2646 19.3384 17.3161 19.0455 17.3161 18.6974V11.0909Z" fill="white"/>
</svg>
