<svg width="33" height="32" viewBox="0 0 33 32" fill="none" xmlns="http://www.w3.org/2000/svg">
<path d="M21.8337 28V25.3333C21.8337 23.9188 21.2718 22.5623 20.2716 21.5621C19.2714 20.5619 17.9148 20 16.5003 20H8.50033C7.08584 20 5.72928 20.5619 4.72909 21.5621C3.7289 22.5623 3.16699 23.9188 3.16699 25.3333V28" stroke="black" stroke-width="2.66667" stroke-linecap="round" stroke-linejoin="round"/>
<path d="M12.5003 14.6667C15.4458 14.6667 17.8337 12.2789 17.8337 9.33333C17.8337 6.38781 15.4458 4 12.5003 4C9.55481 4 7.16699 6.38781 7.16699 9.33333C7.16699 12.2789 9.55481 14.6667 12.5003 14.6667Z" stroke="black" stroke-width="2.66667" stroke-linecap="round" stroke-linejoin="round"/>
<path d="M21.833 14.6667L24.4997 17.3333L29.833 12" stroke="black" stroke-width="2.66667" stroke-linecap="round" stroke-linejoin="round"/>
</svg>
