<svg width="94" height="90" viewBox="0 0 94 90" fill="none" xmlns="http://www.w3.org/2000/svg">
<path d="M40.5 11.75C61.4868 11.75 78.5 28.7632 78.5 49.75C78.5 70.7368 61.4868 87.75 40.5 87.75C19.5132 87.75 2.5 70.7368 2.5 49.75C2.5 28.7632 19.5132 11.75 40.5 11.75Z" fill="white"/>
<path d="M40.5 11.75C61.4868 11.75 78.5 28.7632 78.5 49.75C78.5 70.7368 61.4868 87.75 40.5 87.75C19.5132 87.75 2.5 70.7368 2.5 49.75C2.5 28.7632 19.5132 11.75 40.5 11.75Z" stroke="#6609BE" stroke-width="4"/>
<path d="M8.5 49.75C8.5 32.0769 22.8269 17.75 40.5 17.75C58.1731 17.75 72.5 32.0769 72.5 49.75C72.5 67.4231 58.1731 81.75 40.5 81.75C22.8269 81.75 8.5 67.4231 8.5 49.75Z" fill="url(#paint0_linear_528_2002)"/>
<path d="M40.72 39.75H40.28C39.7496 39.75 39.2409 39.9607 38.8658 40.3358C38.4907 40.7109 38.28 41.2196 38.28 41.75V41.93C38.2796 42.2807 38.1871 42.6252 38.0115 42.9288C37.836 43.2325 37.5837 43.4846 37.28 43.66L36.85 43.91C36.546 44.0855 36.2011 44.1779 35.85 44.1779C35.4989 44.1779 35.154 44.0855 34.85 43.91L34.7 43.83C34.2411 43.5653 33.6958 43.4934 33.184 43.6303C32.6722 43.7672 32.2356 44.1015 31.97 44.56L31.75 44.94C31.4853 45.3989 31.4134 45.9442 31.5503 46.456C31.6872 46.9678 32.0215 47.4044 32.48 47.67L32.63 47.77C32.9323 47.9445 33.1836 48.1951 33.3591 48.4968C33.5345 48.7986 33.6279 49.141 33.63 49.49V50C33.6314 50.3524 33.5397 50.699 33.364 51.0045C33.1884 51.3101 32.9352 51.5638 32.63 51.74L32.48 51.83C32.0215 52.0956 31.6872 52.5322 31.5503 53.044C31.4134 53.5558 31.4853 54.1011 31.75 54.56L31.97 54.94C32.2356 55.3985 32.6722 55.7328 33.184 55.8697C33.6958 56.0066 34.2411 55.9347 34.7 55.67L34.85 55.59C35.154 55.4145 35.4989 55.3221 35.85 55.3221C36.2011 55.3221 36.546 55.4145 36.85 55.59L37.28 55.84C37.5837 56.0154 37.836 56.2675 38.0115 56.5712C38.1871 56.8748 38.2796 57.2193 38.28 57.57V57.75C38.28 58.2804 38.4907 58.7891 38.8658 59.1642C39.2409 59.5393 39.7496 59.75 40.28 59.75H40.72C41.2504 59.75 41.7591 59.5393 42.1342 59.1642C42.5093 58.7891 42.72 58.2804 42.72 57.75V57.57C42.7204 57.2193 42.8129 56.8748 42.9885 56.5712C43.164 56.2675 43.4163 56.0154 43.72 55.84L44.15 55.59C44.454 55.4145 44.7989 55.3221 45.15 55.3221C45.5011 55.3221 45.846 55.4145 46.15 55.59L46.3 55.67C46.7589 55.9347 47.3042 56.0066 47.816 55.8697C48.3278 55.7328 48.7645 55.3985 49.03 54.94L49.25 54.55C49.5147 54.0911 49.5866 53.5458 49.4497 53.034C49.3128 52.5222 48.9785 52.0856 48.52 51.82L48.37 51.74C48.0648 51.5638 47.8116 51.3101 47.636 51.0045C47.4604 50.699 47.3686 50.3524 47.37 50V49.5C47.3686 49.1476 47.4604 48.801 47.636 48.4955C47.8116 48.1899 48.0648 47.9362 48.37 47.76L48.52 47.67C48.9785 47.4044 49.3128 46.9678 49.4497 46.456C49.5866 45.9442 49.5147 45.3989 49.25 44.94L49.03 44.56C48.7645 44.1015 48.3278 43.7672 47.816 43.6303C47.3042 43.4934 46.7589 43.5653 46.3 43.83L46.15 43.91C45.846 44.0855 45.5011 44.1779 45.15 44.1779C44.7989 44.1779 44.454 44.0855 44.15 43.91L43.72 43.66C43.4163 43.4846 43.164 43.2325 42.9885 42.9288C42.8129 42.6252 42.7204 42.2807 42.72 41.93V41.75C42.72 41.2196 42.5093 40.7109 42.1342 40.3358C41.7591 39.9607 41.2504 39.75 40.72 39.75Z" stroke="black" stroke-width="2" stroke-linecap="round" stroke-linejoin="round"/>
<path d="M40.5 52.75C42.1569 52.75 43.5 51.4069 43.5 49.75C43.5 48.0931 42.1569 46.75 40.5 46.75C38.8431 46.75 37.5 48.0931 37.5 49.75C37.5 51.4069 38.8431 52.75 40.5 52.75Z" stroke="black" stroke-width="2" stroke-linecap="round" stroke-linejoin="round"/>
<g filter="url(#filter0_dd_528_2002)">
<path d="M56.5 17.75C56.5 8.91344 63.6634 1.75 72.5 1.75C81.3366 1.75 88.5 8.91344 88.5 17.75C88.5 26.5866 81.3366 33.75 72.5 33.75C63.6634 33.75 56.5 26.5866 56.5 17.75Z" fill="#6609BE" shape-rendering="crispEdges"/>
<path d="M68.9034 22.25V20.6989L72.5277 17.343C72.8359 17.0447 73.0945 16.7763 73.3033 16.5376C73.5154 16.299 73.6761 16.0653 73.7855 15.8366C73.8949 15.6046 73.9496 15.3544 73.9496 15.0859C73.9496 14.7876 73.8816 14.5308 73.7457 14.3153C73.6098 14.0966 73.4242 13.9292 73.1889 13.8132C72.9536 13.6939 72.6868 13.6342 72.3885 13.6342C72.0769 13.6342 71.8052 13.6972 71.5732 13.8232C71.3411 13.9491 71.1622 14.1297 71.0362 14.3651C70.9103 14.6004 70.8473 14.8804 70.8473 15.2053H68.804C68.804 14.5391 68.9548 13.9607 69.2564 13.4702C69.558 12.9796 69.9806 12.6001 70.5241 12.3317C71.0677 12.0632 71.6941 11.929 72.4034 11.929C73.1326 11.929 73.7673 12.0582 74.3075 12.3168C74.8511 12.572 75.2737 12.9266 75.5753 13.3807C75.8769 13.8348 76.0277 14.3551 76.0277 14.9418C76.0277 15.3262 75.9515 15.7057 75.799 16.0803C75.6499 16.4548 75.383 16.8707 74.9986 17.3281C74.6141 17.7822 74.0722 18.3274 73.3729 18.9638L71.8864 20.4205V20.4901H76.1619V22.25H68.9034Z" fill="white"/>
</g>
<defs>
<filter id="filter0_dd_528_2002" x="51.5" y="0.75" width="42" height="42" filterUnits="userSpaceOnUse" color-interpolation-filters="sRGB">
<feFlood flood-opacity="0" result="BackgroundImageFix"/>
<feColorMatrix in="SourceAlpha" type="matrix" values="0 0 0 0 0 0 0 0 0 0 0 0 0 0 0 0 0 0 127 0" result="hardAlpha"/>
<feMorphology radius="1" operator="erode" in="SourceAlpha" result="effect1_dropShadow_528_2002"/>
<feOffset dy="4"/>
<feGaussianBlur stdDeviation="3"/>
<feComposite in2="hardAlpha" operator="out"/>
<feColorMatrix type="matrix" values="0 0 0 0 0 0 0 0 0 0 0 0 0 0 0 0 0 0 0.1 0"/>
<feBlend mode="normal" in2="BackgroundImageFix" result="effect1_dropShadow_528_2002"/>
<feColorMatrix in="SourceAlpha" type="matrix" values="0 0 0 0 0 0 0 0 0 0 0 0 0 0 0 0 0 0 127 0" result="hardAlpha"/>
<feMorphology radius="2" operator="erode" in="SourceAlpha" result="effect2_dropShadow_528_2002"/>
<feOffset dy="2"/>
<feGaussianBlur stdDeviation="2"/>
<feComposite in2="hardAlpha" operator="out"/>
<feColorMatrix type="matrix" values="0 0 0 0 0 0 0 0 0 0 0 0 0 0 0 0 0 0 0.1 0"/>
<feBlend mode="normal" in2="effect1_dropShadow_528_2002" result="effect2_dropShadow_528_2002"/>
<feBlend mode="normal" in="SourceGraphic" in2="effect2_dropShadow_528_2002" result="shape"/>
</filter>
<linearGradient id="paint0_linear_528_2002" x1="8.5" y1="49.75" x2="72.5" y2="49.75" gradientUnits="userSpaceOnUse">
<stop stop-color="#6609BE"/>
<stop offset="1" stop-color="#2700F0"/>
</linearGradient>
</defs>
</svg>
