<svg width="94" height="90" viewBox="0 0 94 90" fill="none" xmlns="http://www.w3.org/2000/svg">
<path d="M40.5 11.75C61.4868 11.75 78.5 28.7632 78.5 49.75C78.5 70.7368 61.4868 87.75 40.5 87.75C19.5132 87.75 2.5 70.7368 2.5 49.75C2.5 28.7632 19.5132 11.75 40.5 11.75Z" fill="white"/>
<path d="M40.5 11.75C61.4868 11.75 78.5 28.7632 78.5 49.75C78.5 70.7368 61.4868 87.75 40.5 87.75C19.5132 87.75 2.5 70.7368 2.5 49.75C2.5 28.7632 19.5132 11.75 40.5 11.75Z" stroke="#6609BE" stroke-width="4"/>
<path d="M8.5 49.75C8.5 32.0769 22.8269 17.75 40.5 17.75C58.1731 17.75 72.5 32.0769 72.5 49.75C72.5 67.4231 58.1731 81.75 40.5 81.75C22.8269 81.75 8.5 67.4231 8.5 49.75Z" fill="url(#paint0_linear_528_2015)"/>
<path d="M44.5 58.75V56.75C44.5 55.6891 44.0786 54.6717 43.3284 53.9216C42.5783 53.1714 41.5609 52.75 40.5 52.75H34.5C33.4391 52.75 32.4217 53.1714 31.6716 53.9216C30.9214 54.6717 30.5 55.6891 30.5 56.75V58.75" stroke="black" stroke-width="2" stroke-linecap="round" stroke-linejoin="round"/>
<path d="M37.5 48.75C39.7091 48.75 41.5 46.9591 41.5 44.75C41.5 42.5409 39.7091 40.75 37.5 40.75C35.2909 40.75 33.5 42.5409 33.5 44.75C33.5 46.9591 35.2909 48.75 37.5 48.75Z" stroke="black" stroke-width="2" stroke-linecap="round" stroke-linejoin="round"/>
<path d="M44.5 48.75L46.5 50.75L50.5 46.75" stroke="black" stroke-width="2" stroke-linecap="round" stroke-linejoin="round"/>
<g filter="url(#filter0_dd_528_2015)">
<path d="M56.5 17.75C56.5 8.91344 63.6634 1.75 72.5 1.75C81.3366 1.75 88.5 8.91344 88.5 17.75C88.5 26.5866 81.3366 33.75 72.5 33.75C63.6634 33.75 56.5 26.5866 56.5 17.75Z" fill="#6609BE" shape-rendering="crispEdges"/>
<path d="M72.5575 22.3892C71.8151 22.3892 71.1539 22.2616 70.5739 22.0064C69.9972 21.7479 69.5414 21.3932 69.2067 20.9425C68.8752 20.4884 68.7045 19.9647 68.6946 19.3714H70.8622C70.8755 19.62 70.9567 19.8388 71.1058 20.0277C71.2583 20.2133 71.4605 20.3575 71.7124 20.4602C71.9643 20.563 72.2476 20.6143 72.5625 20.6143C72.8906 20.6143 73.1806 20.5563 73.4325 20.4403C73.6844 20.3243 73.8816 20.1636 74.0241 19.9581C74.1667 19.7526 74.2379 19.5156 74.2379 19.2472C74.2379 18.9754 74.1617 18.7351 74.0092 18.5263C73.8601 18.3142 73.6446 18.1484 73.3629 18.0291C73.0845 17.9098 72.7531 17.8501 72.3686 17.8501H71.419V16.2692H72.3686C72.6934 16.2692 72.9801 16.2128 73.2287 16.1001C73.4806 15.9875 73.6761 15.8317 73.8153 15.6328C73.9545 15.4306 74.0241 15.1953 74.0241 14.9268C74.0241 14.6716 73.9628 14.4479 73.8402 14.2557C73.7209 14.0601 73.5518 13.9077 73.3331 13.7983C73.1177 13.6889 72.8658 13.6342 72.5774 13.6342C72.2857 13.6342 72.0189 13.6873 71.777 13.7933C71.535 13.8961 71.3411 14.0436 71.1953 14.2358C71.0495 14.428 70.9716 14.6534 70.9616 14.9119H68.8984C68.9084 14.3253 69.0758 13.8082 69.4006 13.3608C69.7254 12.9134 70.1629 12.5637 70.7131 12.3118C71.2666 12.0566 71.8913 11.929 72.5874 11.929C73.29 11.929 73.9048 12.0566 74.4318 12.3118C74.9588 12.567 75.3681 12.9117 75.6598 13.3459C75.9548 13.7768 76.1006 14.2607 76.0973 14.7976C76.1006 15.3677 75.9233 15.8433 75.5653 16.2244C75.2107 16.6056 74.7483 16.8475 74.1783 16.9503V17.0298C74.9273 17.1259 75.4974 17.3861 75.8885 17.8104C76.2829 18.2313 76.4785 18.7583 76.4751 19.3913C76.4785 19.9714 76.3111 20.4867 75.973 20.9375C75.6383 21.3883 75.1759 21.7429 74.5859 22.0014C73.996 22.2599 73.3198 22.3892 72.5575 22.3892Z" fill="white"/>
</g>
<defs>
<filter id="filter0_dd_528_2015" x="51.5" y="0.75" width="42" height="42" filterUnits="userSpaceOnUse" color-interpolation-filters="sRGB">
<feFlood flood-opacity="0" result="BackgroundImageFix"/>
<feColorMatrix in="SourceAlpha" type="matrix" values="0 0 0 0 0 0 0 0 0 0 0 0 0 0 0 0 0 0 127 0" result="hardAlpha"/>
<feMorphology radius="1" operator="erode" in="SourceAlpha" result="effect1_dropShadow_528_2015"/>
<feOffset dy="4"/>
<feGaussianBlur stdDeviation="3"/>
<feComposite in2="hardAlpha" operator="out"/>
<feColorMatrix type="matrix" values="0 0 0 0 0 0 0 0 0 0 0 0 0 0 0 0 0 0 0.1 0"/>
<feBlend mode="normal" in2="BackgroundImageFix" result="effect1_dropShadow_528_2015"/>
<feColorMatrix in="SourceAlpha" type="matrix" values="0 0 0 0 0 0 0 0 0 0 0 0 0 0 0 0 0 0 127 0" result="hardAlpha"/>
<feMorphology radius="2" operator="erode" in="SourceAlpha" result="effect2_dropShadow_528_2015"/>
<feOffset dy="2"/>
<feGaussianBlur stdDeviation="2"/>
<feComposite in2="hardAlpha" operator="out"/>
<feColorMatrix type="matrix" values="0 0 0 0 0 0 0 0 0 0 0 0 0 0 0 0 0 0 0.1 0"/>
<feBlend mode="normal" in2="effect1_dropShadow_528_2015" result="effect2_dropShadow_528_2015"/>
<feBlend mode="normal" in="SourceGraphic" in2="effect2_dropShadow_528_2015" result="shape"/>
</filter>
<linearGradient id="paint0_linear_528_2015" x1="8.5" y1="49.75" x2="72.5" y2="49.75" gradientUnits="userSpaceOnUse">
<stop stop-color="#6609BE"/>
<stop offset="1" stop-color="#2700F0"/>
</linearGradient>
</defs>
</svg>
