<svg width="94" height="90" viewBox="0 0 94 90" fill="none" xmlns="http://www.w3.org/2000/svg">
<path d="M40.5 11.75C61.4868 11.75 78.5 28.7632 78.5 49.75C78.5 70.7368 61.4868 87.75 40.5 87.75C19.5132 87.75 2.5 70.7368 2.5 49.75C2.5 28.7632 19.5132 11.75 40.5 11.75Z" fill="white"/>
<path d="M40.5 11.75C61.4868 11.75 78.5 28.7632 78.5 49.75C78.5 70.7368 61.4868 87.75 40.5 87.75C19.5132 87.75 2.5 70.7368 2.5 49.75C2.5 28.7632 19.5132 11.75 40.5 11.75Z" stroke="#6609BE" stroke-width="4"/>
<path d="M8.5 49.75C8.5 32.0769 22.8269 17.75 40.5 17.75C58.1731 17.75 72.5 32.0769 72.5 49.75C72.5 67.4231 58.1731 81.75 40.5 81.75C22.8269 81.75 8.5 67.4231 8.5 49.75Z" fill="url(#paint0_linear_528_1987)"/>
<path d="M44.5 58.75V56.75C44.5 55.6891 44.0786 54.6717 43.3284 53.9216C42.5783 53.1714 41.5609 52.75 40.5 52.75H34.5C33.4391 52.75 32.4217 53.1714 31.6716 53.9216C30.9214 54.6717 30.5 55.6891 30.5 56.75V58.75" stroke="black" stroke-width="2" stroke-linecap="round" stroke-linejoin="round"/>
<path d="M37.5 48.75C39.7091 48.75 41.5 46.9591 41.5 44.75C41.5 42.5409 39.7091 40.75 37.5 40.75C35.2909 40.75 33.5 42.5409 33.5 44.75C33.5 46.9591 35.2909 48.75 37.5 48.75Z" stroke="black" stroke-width="2" stroke-linecap="round" stroke-linejoin="round"/>
<path d="M47.5 45.75V51.75" stroke="black" stroke-width="2" stroke-linecap="round" stroke-linejoin="round"/>
<path d="M50.5 48.75H44.5" stroke="black" stroke-width="2" stroke-linecap="round" stroke-linejoin="round"/>
<g filter="url(#filter0_dd_528_1987)">
<path d="M56.5 17.75C56.5 8.91344 63.6634 1.75 72.5 1.75C81.3366 1.75 88.5 8.91344 88.5 17.75C88.5 26.5866 81.3366 33.75 72.5 33.75C63.6634 33.75 56.5 26.5866 56.5 17.75Z" fill="#6609BE" shape-rendering="crispEdges"/>
<path d="M74.7237 12.0682V22.25H72.571V14.1115H72.5114L70.1797 15.5732V13.6641L72.7003 12.0682H74.7237Z" fill="white"/>
</g>
<defs>
<filter id="filter0_dd_528_1987" x="51.5" y="0.75" width="42" height="42" filterUnits="userSpaceOnUse" color-interpolation-filters="sRGB">
<feFlood flood-opacity="0" result="BackgroundImageFix"/>
<feColorMatrix in="SourceAlpha" type="matrix" values="0 0 0 0 0 0 0 0 0 0 0 0 0 0 0 0 0 0 127 0" result="hardAlpha"/>
<feMorphology radius="1" operator="erode" in="SourceAlpha" result="effect1_dropShadow_528_1987"/>
<feOffset dy="4"/>
<feGaussianBlur stdDeviation="3"/>
<feComposite in2="hardAlpha" operator="out"/>
<feColorMatrix type="matrix" values="0 0 0 0 0 0 0 0 0 0 0 0 0 0 0 0 0 0 0.1 0"/>
<feBlend mode="normal" in2="BackgroundImageFix" result="effect1_dropShadow_528_1987"/>
<feColorMatrix in="SourceAlpha" type="matrix" values="0 0 0 0 0 0 0 0 0 0 0 0 0 0 0 0 0 0 127 0" result="hardAlpha"/>
<feMorphology radius="2" operator="erode" in="SourceAlpha" result="effect2_dropShadow_528_1987"/>
<feOffset dy="2"/>
<feGaussianBlur stdDeviation="2"/>
<feComposite in2="hardAlpha" operator="out"/>
<feColorMatrix type="matrix" values="0 0 0 0 0 0 0 0 0 0 0 0 0 0 0 0 0 0 0.1 0"/>
<feBlend mode="normal" in2="effect1_dropShadow_528_1987" result="effect2_dropShadow_528_1987"/>
<feBlend mode="normal" in="SourceGraphic" in2="effect2_dropShadow_528_1987" result="shape"/>
</filter>
<linearGradient id="paint0_linear_528_1987" x1="8.5" y1="49.75" x2="72.5" y2="49.75" gradientUnits="userSpaceOnUse">
<stop stop-color="#6609BE"/>
<stop offset="1" stop-color="#2700F0"/>
</linearGradient>
</defs>
</svg>
