<svg width="69" height="69" viewBox="0 0 69 69" fill="none" xmlns="http://www.w3.org/2000/svg">
<g filter="url(#filter0_d_528_1884)">
<path d="M2.5 33.25C2.5 15.5769 16.8269 1.25 34.5 1.25C52.1731 1.25 66.5 15.5769 66.5 33.25C66.5 50.9231 52.1731 65.25 34.5 65.25C16.8269 65.25 2.5 50.9231 2.5 33.25Z" fill="#F5F2FF" shape-rendering="crispEdges"/>
<path d="M33.8665 20.3102C33.9249 20.1921 34.0152 20.0928 34.1271 20.0233C34.239 19.9538 34.3681 19.917 34.4998 19.917C34.6315 19.917 34.7606 19.9538 34.8725 20.0233C34.9844 20.0928 35.0747 20.1921 35.1331 20.3102L38.2131 26.5489C38.416 26.9595 38.7155 27.3147 39.086 27.5841C39.4564 27.8535 39.8866 28.029 40.3398 28.0955L47.2278 29.1035C47.3583 29.1224 47.4809 29.1775 47.5818 29.2624C47.6826 29.3474 47.7577 29.4589 47.7985 29.5843C47.8393 29.7097 47.8442 29.8441 47.8126 29.9721C47.781 30.1001 47.7142 30.2168 47.6198 30.3089L42.6385 35.1595C42.31 35.4797 42.0642 35.8748 41.9222 36.311C41.7803 36.7472 41.7465 37.2114 41.8238 37.6635L42.9998 44.5169C43.0228 44.6473 43.0087 44.7816 42.9591 44.9044C42.9095 45.0273 42.8264 45.1337 42.7192 45.2115C42.612 45.2894 42.4851 45.3355 42.353 45.3447C42.2208 45.3539 42.0887 45.3258 41.9718 45.2635L35.8145 42.0262C35.4088 41.8132 34.9574 41.7019 34.4991 41.7019C34.0409 41.7019 33.5895 41.8132 33.1838 42.0262L27.0278 45.2635C26.9109 45.3254 26.779 45.3532 26.6471 45.3439C26.5151 45.3345 26.3885 45.2883 26.2815 45.2105C26.1746 45.1327 26.0916 45.0264 26.042 44.9038C25.9924 44.7812 25.9783 44.6471 26.0011 44.5169L27.1758 37.6649C27.2534 37.2125 27.2198 36.748 27.0778 36.3116C26.9359 35.8751 26.6899 35.4797 26.3611 35.1595L21.3798 30.3102C21.2846 30.2182 21.2171 30.1014 21.1851 29.9729C21.153 29.8445 21.1577 29.7097 21.1986 29.5838C21.2394 29.4579 21.3148 29.346 21.4162 29.2608C21.5175 29.1757 21.6407 29.1207 21.7718 29.1022L28.6585 28.0955C29.1121 28.0295 29.543 27.8543 29.9139 27.5848C30.2848 27.3154 30.5847 26.9599 30.7878 26.5489L33.8665 20.3102Z" stroke="black" stroke-width="2.66667" stroke-linecap="round" stroke-linejoin="round"/>
</g>
<defs>
<filter id="filter0_d_528_1884" x="0.5" y="0.25" width="68" height="68" filterUnits="userSpaceOnUse" color-interpolation-filters="sRGB">
<feFlood flood-opacity="0" result="BackgroundImageFix"/>
<feColorMatrix in="SourceAlpha" type="matrix" values="0 0 0 0 0 0 0 0 0 0 0 0 0 0 0 0 0 0 127 0" result="hardAlpha"/>
<feOffset dy="1"/>
<feGaussianBlur stdDeviation="1"/>
<feComposite in2="hardAlpha" operator="out"/>
<feColorMatrix type="matrix" values="0 0 0 0 0 0 0 0 0 0 0 0 0 0 0 0 0 0 0.05 0"/>
<feBlend mode="normal" in2="BackgroundImageFix" result="effect1_dropShadow_528_1884"/>
<feBlend mode="normal" in="SourceGraphic" in2="effect1_dropShadow_528_1884" result="shape"/>
</filter>
</defs>
</svg>
