<svg width="35" height="35" viewBox="0 0 35 35" fill="none" xmlns="http://www.w3.org/2000/svg">
<g filter="url(#filter0_d_528_2037)">
<path d="M2.5 16.75C2.5 8.46573 9.21573 1.75 17.5 1.75C25.7843 1.75 32.5 8.46573 32.5 16.75C32.5 25.0343 25.7843 31.75 17.5 31.75C9.21573 31.75 2.5 25.0343 2.5 16.75Z" fill="white" shape-rendering="crispEdges"/>
<path d="M17.5 2.25C25.5081 2.25 32 8.74187 32 16.75C32 24.7581 25.5081 31.25 17.5 31.25C9.49187 31.25 3 24.7581 3 16.75C3 8.74187 9.49187 2.25 17.5 2.25Z" stroke="#E5E7EB" shape-rendering="crispEdges"/>
<path d="M18.7251 13.8584C18.481 13.6144 18.481 13.2186 18.7251 12.9746C18.9692 12.7305 19.3648 12.7305 19.6089 12.9746L22.9422 16.3079C23.1863 16.552 23.1863 16.9477 22.9422 17.1918L19.6089 20.5251C19.3648 20.7692 18.9692 20.7692 18.7251 20.5251C18.481 20.281 18.481 19.8853 18.7251 19.6413L20.9914 17.3748H12.917C12.5718 17.3748 12.292 17.095 12.292 16.7498C12.292 16.4047 12.5718 16.1248 12.917 16.1248H20.9914L18.7251 13.8584Z" fill="black"/>
</g>
<defs>
<filter id="filter0_d_528_2037" x="0.5" y="0.75" width="34" height="34" filterUnits="userSpaceOnUse" color-interpolation-filters="sRGB">
<feFlood flood-opacity="0" result="BackgroundImageFix"/>
<feColorMatrix in="SourceAlpha" type="matrix" values="0 0 0 0 0 0 0 0 0 0 0 0 0 0 0 0 0 0 127 0" result="hardAlpha"/>
<feOffset dy="1"/>
<feGaussianBlur stdDeviation="1"/>
<feComposite in2="hardAlpha" operator="out"/>
<feColorMatrix type="matrix" values="0 0 0 0 0 0 0 0 0 0 0 0 0 0 0 0 0 0 0.05 0"/>
<feBlend mode="normal" in2="BackgroundImageFix" result="effect1_dropShadow_528_2037"/>
<feBlend mode="normal" in="SourceGraphic" in2="effect1_dropShadow_528_2037" result="shape"/>
</filter>
</defs>
</svg>
