<svg width="20" height="21" viewBox="0 0 20 21" fill="none" xmlns="http://www.w3.org/2000/svg">
<path d="M16.6663 8.83366C16.6663 12.9945 12.0505 17.3278 10.5005 18.6662C10.3561 18.7747 10.1803 18.8335 9.99967 18.8335C9.81901 18.8335 9.64324 18.7747 9.49884 18.6662C7.94884 17.3278 3.33301 12.9945 3.33301 8.83366C3.33301 7.06555 4.03539 5.36986 5.28563 4.11961C6.53587 2.86937 8.23156 2.16699 9.99967 2.16699C11.7678 2.16699 13.4635 2.86937 14.7137 4.11961C15.964 5.36986 16.6663 7.06555 16.6663 8.83366Z" stroke="black" stroke-width="1.66667" stroke-linecap="round" stroke-linejoin="round"/>
<path d="M10 11.333C11.3807 11.333 12.5 10.2137 12.5 8.83301C12.5 7.4523 11.3807 6.33301 10 6.33301C8.61929 6.33301 7.5 7.4523 7.5 8.83301C7.5 10.2137 8.61929 11.333 10 11.333Z" stroke="black" stroke-width="1.66667" stroke-linecap="round" stroke-linejoin="round"/>
</svg>
