<svg width="69" height="69" viewBox="0 0 69 69" fill="none" xmlns="http://www.w3.org/2000/svg">
<g filter="url(#filter0_d_528_1852)">
<path d="M2.5 33.25C2.5 15.5769 16.8269 1.25 34.5 1.25C52.1731 1.25 66.5 15.5769 66.5 33.25C66.5 50.9231 52.1731 65.25 34.5 65.25C16.8269 65.25 2.5 50.9231 2.5 33.25Z" fill="#F5F2FF" shape-rendering="crispEdges"/>
<path d="M34.5003 46.5832C41.8641 46.5832 47.8337 40.6136 47.8337 33.2498C47.8337 25.886 41.8641 19.9165 34.5003 19.9165C27.1365 19.9165 21.167 25.886 21.167 33.2498C21.167 40.6136 27.1365 46.5832 34.5003 46.5832Z" stroke="black" stroke-width="2.66667" stroke-linecap="round" stroke-linejoin="round"/>
<path d="M34.5 25.25V33.25L39.8333 35.9167" stroke="black" stroke-width="2.66667" stroke-linecap="round" stroke-linejoin="round"/>
</g>
<defs>
<filter id="filter0_d_528_1852" x="0.5" y="0.25" width="68" height="68" filterUnits="userSpaceOnUse" color-interpolation-filters="sRGB">
<feFlood flood-opacity="0" result="BackgroundImageFix"/>
<feColorMatrix in="SourceAlpha" type="matrix" values="0 0 0 0 0 0 0 0 0 0 0 0 0 0 0 0 0 0 127 0" result="hardAlpha"/>
<feOffset dy="1"/>
<feGaussianBlur stdDeviation="1"/>
<feComposite in2="hardAlpha" operator="out"/>
<feColorMatrix type="matrix" values="0 0 0 0 0 0 0 0 0 0 0 0 0 0 0 0 0 0 0.05 0"/>
<feBlend mode="normal" in2="BackgroundImageFix" result="effect1_dropShadow_528_1852"/>
<feBlend mode="normal" in="SourceGraphic" in2="effect1_dropShadow_528_1852" result="shape"/>
</filter>
</defs>
</svg>
