<svg width="182" height="65" viewBox="0 0 182 65" fill="none" xmlns="http://www.w3.org/2000/svg">
<path d="M17.3 52.45C14.3 52.45 11.6167 51.8667 9.25 50.7C6.88333 49.5333 5.03333 47.9167 3.7 45.85C2.4 43.75 1.75 41.3667 1.75 38.7V30.2C1.75 27.5333 2.38333 25.1667 3.65 23.1C4.95 21.0333 6.75 19.4333 9.05 18.3C11.3833 17.1333 14.0333 16.55 17 16.55C19.9667 16.55 22.6167 17 24.95 17.9C27.2833 18.7667 29.0833 19.9833 30.35 21.55C31.65 23.1167 32.3 24.9167 32.3 26.95C32.3 28.25 31.8667 29.2833 31 30.05C30.1333 30.7833 28.95 31.15 27.45 31.15C26.5833 31.15 25.7333 31.0333 24.9 30.8C25 30.1 25.05 29.2667 25.05 28.3C25.05 26.7 24.3 25.4 22.8 24.4C21.3 23.3667 19.3667 22.85 17 22.85C14.6667 22.85 12.7667 23.5333 11.3 24.9C9.83333 26.2667 9.1 28.0333 9.1 30.2V38.7C9.1 40.9 9.85 42.7 11.35 44.1C12.8833 45.4667 14.8667 46.15 17.3 46.15C19.6333 46.15 21.5333 45.6167 23 44.55C24.4667 43.4833 25.2 42.1167 25.2 40.45V39.3H21.55C20.1833 39.3 19.0667 38.7667 18.2 37.7C17.3667 36.6333 16.95 35.25 16.95 33.55H29.1C30.1 33.55 30.9167 33.8667 31.55 34.5C32.1833 35.1 32.5 35.9 32.5 36.9V40.6C32.5 42.9 31.85 44.95 30.55 46.75C29.2833 48.55 27.5 49.95 25.2 50.95C22.9 51.95 20.2667 52.45 17.3 52.45ZM36.9785 21.9C36.9785 20.2667 37.6452 18.9667 38.9785 18C40.3118 17 42.0952 16.5 44.3285 16.5L54.3285 42L53.0785 45.4L53.6285 45.65L64.3785 16.55C66.6119 16.55 68.3952 17.05 69.7285 18.05C71.0619 19.0167 71.7285 20.3167 71.7285 21.95V52.45C66.9619 52.45 64.5785 50.7 64.5785 47.2V32.9L66.3785 27.9L65.7785 27.7L57.2785 50.5C57.0452 51.0667 56.6619 51.5333 56.1285 51.9C55.5952 52.2667 55.0119 52.45 54.3785 52.45C53.7118 52.45 53.1118 52.2667 52.5785 51.9C52.0452 51.5333 51.6618 51.05 51.4285 50.45L42.9285 27.6L42.3285 27.85L44.1285 32.85V47.2C44.1285 50.7 41.7452 52.45 36.9785 52.45V21.9ZM77.2129 21.85C77.2129 20.1167 77.8296 18.8 79.0629 17.9C80.3296 17 82.1629 16.55 84.5629 16.55V31.2H98.6129V21.85C98.6129 20.1167 99.2296 18.8 100.463 17.9C101.73 17 103.563 16.55 105.963 16.55V47.15C105.963 48.8833 105.33 50.2 104.063 51.1C102.83 52 101.013 52.45 98.6129 52.45V37.55H84.5629V47.15C84.5629 48.8833 83.9296 50.2 82.6629 51.1C81.4296 52 79.6129 52.45 77.2129 52.45V21.85ZM122.641 52.45C120.575 52.45 118.658 52.0333 116.891 51.2C115.158 50.3667 113.775 49.2333 112.741 47.8C111.708 46.3667 111.191 44.7667 111.191 43V36.6C111.191 34.7333 111.708 33.0333 112.741 31.5C113.808 29.9333 115.225 28.7167 116.991 27.85C118.758 26.9833 120.658 26.55 122.691 26.55C124.691 26.55 126.525 26.9667 128.191 27.8C129.891 28.6 131.225 29.75 132.191 31.25C133.158 32.7167 133.641 34.3833 133.641 36.25V38.95C133.641 39.75 133.341 40.4333 132.741 41C132.141 41.5333 131.375 41.8 130.441 41.8H117.841V42.5C117.841 43.8333 118.241 44.9333 119.041 45.8C119.875 46.6333 121.091 47.05 122.691 47.05C124.258 47.05 125.408 46.7167 126.141 46.05C126.875 45.35 127.241 44.4833 127.241 43.45C127.908 43.3833 128.408 43.35 128.741 43.35C130.108 43.35 131.158 43.6333 131.891 44.2C132.625 44.7667 132.991 45.6 132.991 46.7C132.991 47.6 132.541 48.5 131.641 49.4C130.741 50.3 129.491 51.0333 127.891 51.6C126.325 52.1667 124.575 52.45 122.641 52.45ZM127.441 36.95V36.25C127.441 34.9167 126.991 33.8667 126.091 33.1C125.225 32.3 124.075 31.9 122.641 31.9C121.208 31.9 120.041 32.3 119.141 33.1C118.275 33.8667 117.841 34.9167 117.841 36.25V36.95H127.441ZM146.65 52.45C143.75 52.45 141.567 51.6333 140.1 50C138.634 48.3333 137.9 46.2333 137.9 43.7V20.55C137.9 19.1167 138.45 18.1 139.55 17.5C140.684 16.8667 142.417 16.55 144.75 16.55V43.45C144.75 44.55 145 45.35 145.5 45.85C146 46.3167 146.784 46.55 147.85 46.55C149.117 46.55 150.367 46.2167 151.6 45.55C151.967 45.8833 152.25 46.3 152.45 46.8C152.684 47.3 152.8 47.8 152.8 48.3C152.8 49.3667 152.267 50.3333 151.2 51.2C150.167 52.0333 148.65 52.45 146.65 52.45ZM156.803 31.1C156.803 29.8333 157.336 28.7667 158.403 27.9C159.469 27 161.036 26.55 163.103 26.55V29.25C162.703 29.75 162.386 30.2 162.153 30.6L162.403 30.8C163.436 29.3667 164.586 28.3 165.853 27.6C167.153 26.9 168.769 26.55 170.703 26.55C172.503 26.55 174.103 26.9333 175.503 27.7C176.936 28.4667 178.036 29.55 178.803 30.95C179.603 32.3167 180.003 33.8833 180.003 35.65V43.35C180.003 45.15 179.553 46.75 178.653 48.15C177.786 49.5167 176.569 50.5833 175.003 51.35C173.469 52.0833 171.736 52.45 169.803 52.45C168.669 52.45 167.436 52.2167 166.103 51.75C164.803 51.2833 163.719 50.6333 162.853 49.8L162.653 50.05C162.819 50.3167 163.186 50.65 163.753 51.05V57.95C163.753 60.95 161.436 62.45 156.803 62.45V31.1ZM168.403 46.55C169.936 46.55 171.103 46.2333 171.903 45.6C172.736 44.9667 173.153 44.0667 173.153 42.9V36.15C173.153 34.95 172.736 34.0333 171.903 33.4C171.103 32.7667 169.936 32.45 168.403 32.45C167.003 32.45 165.853 32.7833 164.953 33.45C164.086 34.0833 163.653 34.9 163.653 35.9V43.1C163.653 44.0667 164.086 44.8833 164.953 45.55C165.853 46.2167 167.003 46.55 168.403 46.55Z" fill="black" fill-opacity="0.2"/>
</svg>
