<svg width="183" height="29" viewBox="0 0 183 29" fill="none" xmlns="http://www.w3.org/2000/svg">
<path d="M9.38 22.27C7.58 22.27 5.97 21.92 4.55 21.22C3.13 20.52 2.02 19.55 1.22 18.31C0.44 17.05 0.05 15.62 0.05 14.02V8.92C0.05 7.32 0.43 5.9 1.19 4.66C1.97 3.42 3.05 2.46 4.43 1.78C5.83 1.08 7.42 0.729998 9.2 0.729998C10.98 0.729998 12.57 0.999999 13.97 1.54C15.37 2.06 16.45 2.79 17.21 3.73C17.99 4.67 18.38 5.75 18.38 6.97C18.38 7.75 18.12 8.37 17.6 8.83C17.08 9.27 16.37 9.49 15.47 9.49C14.95 9.49 14.44 9.42 13.94 9.28C14 8.86 14.03 8.36 14.03 7.78C14.03 6.82 13.58 6.04 12.68 5.44C11.78 4.82 10.62 4.51 9.2 4.51C7.8 4.51 6.66 4.92 5.78 5.74C4.9 6.56 4.46 7.62 4.46 8.92V14.02C4.46 15.34 4.91 16.42 5.81 17.26C6.73 18.08 7.92 18.49 9.38 18.49C10.78 18.49 11.92 18.17 12.8 17.53C13.68 16.89 14.12 16.07 14.12 15.07V14.38H11.93C11.11 14.38 10.44 14.06 9.92 13.42C9.42 12.78 9.17 11.95 9.17 10.93H16.46C17.06 10.93 17.55 11.12 17.93 11.5C18.31 11.86 18.5 12.34 18.5 12.94V15.16C18.5 16.54 18.11 17.77 17.33 18.85C16.57 19.93 15.5 20.77 14.12 21.37C12.74 21.97 11.16 22.27 9.38 22.27ZM21.1871 3.94C21.1871 2.96 21.5871 2.18 22.3871 1.6C23.1871 0.999999 24.2571 0.699999 25.5971 0.699999L31.5971 16L30.8471 18.04L31.1771 18.19L37.6271 0.729998C38.9671 0.729998 40.0371 1.03 40.8371 1.63C41.6371 2.21 42.0371 2.99 42.0371 3.97V22.27C39.1771 22.27 37.7471 21.22 37.7471 19.12V10.54L38.8271 7.54L38.4671 7.42L33.3671 21.1C33.2271 21.44 32.9971 21.72 32.6771 21.94C32.3571 22.16 32.0071 22.27 31.6271 22.27C31.2271 22.27 30.8671 22.16 30.5471 21.94C30.2271 21.72 29.9971 21.43 29.8571 21.07L24.7571 7.36L24.3971 7.51L25.4771 10.51V19.12C25.4771 21.22 24.0471 22.27 21.1871 22.27V3.94ZM45.3277 3.91C45.3277 2.87 45.6977 2.08 46.4377 1.54C47.1977 0.999999 48.2977 0.729998 49.7377 0.729998V9.52H58.1677V3.91C58.1677 2.87 58.5377 2.08 59.2777 1.54C60.0377 0.999999 61.1377 0.729998 62.5777 0.729998V19.09C62.5777 20.13 62.1977 20.92 61.4377 21.46C60.6977 22 59.6077 22.27 58.1677 22.27V13.33H49.7377V19.09C49.7377 20.13 49.3577 20.92 48.5977 21.46C47.8577 22 46.7677 22.27 45.3277 22.27V3.91ZM82.0892 22.27C79.2892 22.27 77.0692 21.79 75.4292 20.83C73.8092 19.87 72.9992 18.54 72.9992 16.84C72.9992 16.1 73.2792 15.5 73.8392 15.04C74.3992 14.58 75.3392 14.35 76.6592 14.35C76.7392 15.81 77.2392 16.92 78.1592 17.68C79.0992 18.42 80.4092 18.79 82.0892 18.79C83.3892 18.79 84.4092 18.57 85.1492 18.13C85.8892 17.67 86.2592 17.04 86.2592 16.24C86.2592 15.7 86.1192 15.26 85.8392 14.92C85.5592 14.58 85.0692 14.27 84.3692 13.99C83.6892 13.71 82.6892 13.42 81.3692 13.12C79.3692 12.66 77.7992 12.14 76.6592 11.56C75.5192 10.98 74.6892 10.29 74.1692 9.49C73.6692 8.69 73.4192 7.69 73.4192 6.49C73.4192 5.35 73.7592 4.35 74.4392 3.49C75.1392 2.61 76.1092 1.93 77.3492 1.45C78.5892 0.969998 80.0292 0.729998 81.6692 0.729998C83.2292 0.729998 84.6292 0.939999 85.8692 1.36C87.1092 1.76 88.0792 2.33 88.7792 3.07C89.4792 3.81 89.8292 4.66 89.8292 5.62C89.8292 6.36 89.5492 6.95 88.9892 7.39C88.4492 7.81 87.5492 8.04 86.2892 8.08C86.1892 6.74 85.7792 5.76 85.0592 5.14C84.3392 4.52 83.2092 4.21 81.6692 4.21C80.4092 4.21 79.4392 4.41 78.7592 4.81C78.0792 5.21 77.7392 5.79 77.7392 6.55C77.7392 7.07 77.8692 7.5 78.1292 7.84C78.3892 8.16 78.8292 8.45 79.4492 8.71C80.0892 8.97 80.9992 9.23 82.1792 9.49C84.2392 9.95 85.8692 10.48 87.0692 11.08C88.2892 11.66 89.1692 12.36 89.7092 13.18C90.2692 14 90.5492 15.01 90.5492 16.21C90.5492 17.43 90.1992 18.5 89.4992 19.42C88.8192 20.34 87.8392 21.05 86.5592 21.55C85.2992 22.03 83.8092 22.27 82.0892 22.27ZM106.847 19.15C106.847 20.15 106.517 20.92 105.857 21.46C105.197 22 104.217 22.27 102.917 22.27V20.5C103.217 20.18 103.467 19.84 103.667 19.48L103.457 19.36C102.197 21.3 100.497 22.27 98.3574 22.27C97.3574 22.27 96.4474 22.04 95.6274 21.58C94.8074 21.1 94.1574 20.44 93.6774 19.6C93.2174 18.74 92.9874 17.77 92.9874 16.69V9.13C92.9874 8.27 93.3174 7.66 93.9774 7.3C94.6574 6.92 95.6974 6.73 97.0974 6.73V16.39C97.0974 17.11 97.3174 17.68 97.7574 18.1C98.1974 18.52 98.8374 18.73 99.6774 18.73C100.637 18.73 101.387 18.43 101.927 17.83C102.467 17.21 102.737 16.42 102.737 15.46V9.13C102.737 8.27 103.067 7.66 103.727 7.3C104.407 6.92 105.447 6.73 106.847 6.73V19.15ZM110.162 9.46C110.162 8.7 110.482 8.06 111.122 7.54C111.762 7 112.702 6.73 113.942 6.73V8.35C113.702 8.65 113.512 8.92 113.372 9.16L113.522 9.28C114.142 8.42 114.832 7.78 115.592 7.36C116.372 6.94 117.342 6.73 118.502 6.73C119.582 6.73 120.542 6.96 121.382 7.42C122.242 7.88 122.902 8.53 123.362 9.37C123.842 10.19 124.082 11.13 124.082 12.19V16.81C124.082 17.89 123.812 18.85 123.272 19.69C122.752 20.51 122.022 21.15 121.082 21.61C120.162 22.05 119.122 22.27 117.962 22.27C117.282 22.27 116.542 22.13 115.742 21.85C114.962 21.57 114.312 21.18 113.792 20.68L113.672 20.83C113.772 20.99 113.992 21.19 114.332 21.43V25.57C114.332 27.37 112.942 28.27 110.162 28.27V9.46ZM117.122 18.73C118.042 18.73 118.742 18.54 119.222 18.16C119.722 17.78 119.972 17.24 119.972 16.54V12.49C119.972 11.77 119.722 11.22 119.222 10.84C118.742 10.46 118.042 10.27 117.122 10.27C116.282 10.27 115.592 10.47 115.052 10.87C114.532 11.25 114.272 11.74 114.272 12.34V16.66C114.272 17.24 114.532 17.73 115.052 18.13C115.592 18.53 116.282 18.73 117.122 18.73ZM126.773 9.46C126.773 8.7 127.093 8.06 127.733 7.54C128.373 7 129.313 6.73 130.553 6.73V8.35C130.313 8.65 130.123 8.92 129.983 9.16L130.133 9.28C130.753 8.42 131.443 7.78 132.203 7.36C132.983 6.94 133.953 6.73 135.113 6.73C136.193 6.73 137.153 6.96 137.993 7.42C138.853 7.88 139.513 8.53 139.973 9.37C140.453 10.19 140.693 11.13 140.693 12.19V16.81C140.693 17.89 140.423 18.85 139.883 19.69C139.363 20.51 138.633 21.15 137.693 21.61C136.773 22.05 135.733 22.27 134.573 22.27C133.893 22.27 133.153 22.13 132.353 21.85C131.573 21.57 130.923 21.18 130.403 20.68L130.283 20.83C130.383 20.99 130.603 21.19 130.943 21.43V25.57C130.943 27.37 129.553 28.27 126.773 28.27V9.46ZM133.733 18.73C134.653 18.73 135.353 18.54 135.833 18.16C136.333 17.78 136.583 17.24 136.583 16.54V12.49C136.583 11.77 136.333 11.22 135.833 10.84C135.353 10.46 134.653 10.27 133.733 10.27C132.893 10.27 132.203 10.47 131.663 10.87C131.143 11.25 130.883 11.74 130.883 12.34V16.66C130.883 17.24 131.143 17.73 131.663 18.13C132.203 18.53 132.893 18.73 133.733 18.73ZM149.103 22.27C147.783 22.27 146.583 22.03 145.503 21.55C144.423 21.07 143.573 20.41 142.953 19.57C142.333 18.71 142.023 17.74 142.023 16.66V12.67C142.023 11.57 142.323 10.57 142.923 9.67C143.523 8.75 144.363 8.03 145.443 7.51C146.523 6.99 147.743 6.73 149.103 6.73C150.463 6.73 151.683 6.99 152.763 7.51C153.843 8.03 154.683 8.75 155.283 9.67C155.883 10.57 156.183 11.57 156.183 12.67V16.66C156.183 17.74 155.873 18.71 155.253 19.57C154.633 20.41 153.783 21.07 152.703 21.55C151.623 22.03 150.423 22.27 149.103 22.27ZM149.103 18.73C150.043 18.73 150.773 18.52 151.293 18.1C151.813 17.68 152.073 17.1 152.073 16.36V12.88C152.073 12.1 151.803 11.47 151.263 10.99C150.743 10.51 150.023 10.27 149.103 10.27C148.183 10.27 147.453 10.51 146.913 10.99C146.393 11.47 146.133 12.1 146.133 12.88V16.36C146.133 17.1 146.393 17.68 146.913 18.1C147.433 18.52 148.163 18.73 149.103 18.73ZM167.012 10.27C165.812 10.27 164.842 10.58 164.102 11.2C163.362 11.82 162.992 12.6 162.992 13.54V19.87C162.992 20.73 162.652 21.35 161.972 21.73C161.312 22.09 160.282 22.27 158.882 22.27V9.85C158.882 8.85 159.212 8.08 159.872 7.54C160.532 7 161.512 6.73 162.812 6.73V8.5C162.512 8.82 162.262 9.16 162.062 9.52L162.272 9.64C163.532 7.7 165.102 6.73 166.982 6.73C167.882 6.73 168.562 6.97 169.022 7.45C169.482 7.93 169.712 8.54 169.712 9.28C169.712 9.84 169.562 10.33 169.262 10.75C168.702 10.43 167.952 10.27 167.012 10.27ZM178.893 22.27C177.193 22.27 175.943 21.78 175.143 20.8C174.343 19.82 173.943 18.56 173.943 17.02V10.03H170.763C170.763 9.01 170.953 8.25 171.333 7.75C171.713 7.25 172.213 7 172.833 7H174.003V4.63C174.003 3.77 174.333 3.16 174.993 2.8C175.653 2.42 176.653 2.23 177.993 2.23V7H181.983C181.983 8.08 181.783 8.86 181.383 9.34C180.983 9.8 180.323 10.03 179.403 10.03H178.053V16.87C178.053 17.53 178.183 18.01 178.443 18.31C178.703 18.59 179.153 18.73 179.793 18.73C180.493 18.73 181.213 18.53 181.953 18.13C182.173 18.33 182.343 18.58 182.463 18.88C182.603 19.18 182.673 19.48 182.673 19.78C182.673 20.18 182.533 20.57 182.253 20.95C181.973 21.33 181.543 21.65 180.963 21.91C180.403 22.15 179.713 22.27 178.893 22.27Z" fill="black" fill-opacity="0.2"/>
</svg>
